<defs>
<font horiz-adv-x="980" ><font-face
    font-family="arial-bold-italic"
    units-per-em="2048"
    panose-1="2 11 7 4 2 2 2 9 2 4"
    ascent="1854"
    descent="-434"
    alphabetic="0" />
<missing-glyph horiz-adv-x="1536" d="M256 0V1280H1280V0H256ZM288 32H1248V1248H288V32Z" />
<glyph unicode=" " glyph-name="space" horiz-adv-x="569" />
<glyph unicode="!" glyph-name="exclam" horiz-adv-x="682" d="M418 373H260L350 1121L422 1466H723L646 1095L418 373ZM184 277H468L410 0H126L184 277Z" />
<glyph unicode="&quot;" glyph-name="quotedbl" horiz-adv-x="971" d="M310 945L315 1218L368 1466H674L621 1218L517 945H310ZM674 945L679 1218L732 1466H1038L985 1218L881 945H674Z" />
<glyph unicode="#" glyph-name="numbersign" horiz-adv-x="1139" d="M234 365H98V585H278L338 880H98V1101H383L462 1491H686L607 1101H828L905 1491H1137L1057 1101H1195V880H1012L952 585H1195V365H907L828 -25H605L682 365H460L381 -25H155L234 365ZM563 880L504
585H726L784 880H563Z" />
<glyph unicode="$" glyph-name="dollar" horiz-adv-x="1139" d="M429 -10Q286 25 194 139T90 426L343 439Q362 267 476 215L568 657Q409 727 336 837T262 1068Q262 1176 320 1277T486 1435T690 1492L743 1491L761 1577H904L882 1474Q1011 1442 1089 1350T1180
1115L934 1102Q916 1213 837 1257L754 859Q932 787 1009 680T1087 434Q1087 242 944 108T569 -27L532 -203H389L429 -10ZM623 918L699 1281Q614 1282 558 1228T501 1098Q501 986 623 918ZM699 596L615 195Q728 204 789 265T851 410Q851 465 823 505T699 596Z" />
<glyph unicode="%" glyph-name="percent" horiz-adv-x="1821" d="M186 1011Q186 1202 289 1346T577 1491Q703 1491 778 1411T854 1188Q854 1070 803 951T662 777T463 721Q339 721 263 799T186 1011ZM397 988Q397 937 419 914T479 890Q551 890 599 998T648 1228Q648
1272 625 1296T565 1321Q523 1321 490 1287T427 1152T397 988ZM485 -63H254L1476 1491H1706L485 -63ZM1102 229Q1102 420 1205 565T1493 710Q1619 710 1694 630T1770 407Q1770 289 1719 170T1578 -5T1379 -60Q1255 -60 1179 18T1102 229ZM1312 207Q1312 156 1334
133T1395 109Q1467 109 1515 217T1564 446Q1564 491 1541 515T1481 540Q1439 540 1406 506T1342 371T1312 207Z" />
<glyph unicode="&amp;" glyph-name="ampersand" horiz-adv-x="1479" d="M1239 638L1446 514Q1417 458 1371 393T1284 290Q1341 229 1430 154L1249 -34Q1215 -16 1163 27T1074 108Q1002 51 893 13T658 -25Q430 -25 300 95T170 391Q170 502 221 597T355 761Q414
810 547 881Q482 1022 482 1127Q482 1281 594 1386T891 1491Q1049 1491 1141 1408T1234 1212Q1234 1117 1155 1007T893 804Q950 708 1035 584Q1086 508 1117 475Q1168 526 1239 638ZM789 1000Q907 1060 955 1121Q989 1165 989 1210Q989 1251 962 1277T886 1304Q826
1304 786 1263T746 1154Q746 1090 789 1000ZM651 679Q453 580 453 418Q453 326 512 267T669 208Q788 208 914 291Q763 475 651 679Z" />
<glyph unicode="&apos;" glyph-name="quotesingle" horiz-adv-x="487" d="M310 945L315 1218L368 1466H674L621 1218L517 945H310Z" />
<glyph unicode="(" glyph-name="parenleft" horiz-adv-x="682" d="M491 -431H296Q214 -240 175 -45T135 314Q135 518 200 723T401 1142Q486 1278 674 1491H892Q701 1267 598 1070T443 641T392 187Q392 37 414 -105T491 -431Z" />
<glyph unicode=")" glyph-name="parenright" horiz-adv-x="682" d="M241 1491H436Q518 1301 557 1105T597 747Q597 543 532 338T331 -82Q245 -218 58 -431H-160Q30 -207 133 -11T288 417T339 873Q339 1024 317 1165T241 1491Z" />
<glyph unicode="*" glyph-name="asterisk" horiz-adv-x="797" d="M418 792L267 909Q339 990 417 1064Q448 1094 456 1102Q431 1106 313 1135Q228 1156 201 1166L260 1342Q391 1289 494 1225Q470 1388 470 1491H648Q648 1418 621 1223Q641 1231 707 1262Q797 1303
873 1332L926 1151Q815 1126 669 1102L789 967Q825 926 846 900L693 799L558 1022Q497 914 418 792Z" />
<glyph unicode="+" glyph-name="plus" horiz-adv-x="1196" d="M549 211V592H165V855H549V1236H805V855H1190V592H805V211H549Z" />
<glyph unicode="," glyph-name="comma" horiz-adv-x="569" d="M146 277H435L387 48Q346 -150 256 -232T21 -318L49 -185Q121 -169 160 -128T219 0H87L146 277Z" />
<glyph unicode="-" glyph-name="hyphen" horiz-adv-x="682" d="M137 667H694L636 390H79L137 667Z" />
<glyph unicode="." glyph-name="period" horiz-adv-x="569" d="M148 277H432L374 0H90L148 277Z" />
<glyph unicode="/" glyph-name="slash" horiz-adv-x="569" d="M-89 -25L637 1491H837L112 -25H-89Z" />
<glyph unicode="0" glyph-name="zero" horiz-adv-x="1139" d="M132 477Q132 698 207 925Q299 1202 443 1337T763 1472Q941 1472 1055 1343T1170 968Q1170 743 1087 493T861 109T541 -25Q363 -25 248 104T132 477ZM414 419Q414 301 452 253T550 205Q630 205 692
279Q775 378 839 669Q890 900 890 1035Q890 1145 852 1193T753 1242Q677 1242 618 1169Q531 1063 468 796Q414 565 414 419Z" />
<glyph unicode="1" glyph-name="one" horiz-adv-x="1139" d="M243 842L297 1098Q668 1260 871 1475H1046L737 0H448L661 1016Q571 958 454 910T243 842Z" />
<glyph unicode="2" glyph-name="two" horiz-adv-x="1139" d="M541 1009L260 1051Q294 1255 418 1363T730 1472Q935 1472 1052 1361T1169 1079Q1169 992 1133 905T1015 721Q956 653 822 529T645 359T561 262H1069L1015 0H124Q138 108 187 205T311 387T582 658Q730
800 769 843Q839 921 865 978T891 1081Q891 1155 848 1201T737 1247Q669 1247 618 1196T541 1009Z" />
<glyph unicode="3" glyph-name="three" horiz-adv-x="1139" d="M104 383L379 416Q396 299 440 254T559 209Q657 209 721 275T786 444Q786 534 734 586T594 639Q572 639 548 635L598 874Q613 872 627 872Q742 872 802 930T862 1089Q862 1160 822 1201T715 1242Q653
1242 604 1197T526 1041L264 1093Q314 1255 403 1342Q538 1472 735 1472Q937 1472 1042 1360T1147 1090Q1147 976 1080 884T896 749Q989 700 1033 622T1077 459Q1077 297 962 161Q805 -25 557 -25Q371 -25 251 81T104 383Z" />
<glyph unicode="4" glyph-name="four" horiz-adv-x="1139" d="M633 299H56L106 539L899 1466H1147L954 543H1132L1081 299H903L840 0H570L633 299ZM684 543L779 1000L392 543H684Z" />
<glyph unicode="5" glyph-name="five" horiz-adv-x="1139" d="M130 420L409 445Q408 425 408 415Q408 313 453 262T572 211Q674 211 757 308T841 578Q841 680 794 732T669 784Q613 784 561 758T459 679L223 697L446 1446H1183L1129 1184H642L575 958Q617 977 659
986T742 996Q910 996 1018 883T1126 580Q1126 428 1051 281T841 54T560 -25Q373 -25 253 96T130 420Z" />
<glyph unicode="6" glyph-name="six" horiz-adv-x="1139" d="M1179 1108L910 1086Q902 1173 869 1208T778 1243Q705 1243 648 1185Q567 1102 518 917Q611 978 715 978Q885 978 995 862T1105 546Q1105 387 1028 246T836 39T593 -26Q470 -26 372 35T220 215T166
531Q166 924 340 1198T799 1472Q963 1472 1060 1382T1179 1108ZM442 431Q442 315 488 260T602 205Q686 205 746 283Q827 388 827 565Q827 679 782 733T672 788Q617 788 561 747T474 615T442 431Z" />
<glyph unicode="7" glyph-name="seven" horiz-adv-x="1139" d="M212 1181L267 1446H1234L1191 1242Q1099 1168 988 1020T783 688T628 339Q545 111 525 0H252Q270 110 337 302Q419 538 542 758T839 1181H212Z" />
<glyph unicode="8" glyph-name="eight" horiz-adv-x="1139" d="M440 807Q363 858 325 924T286 1072Q286 1166 340 1263T501 1416T745 1472Q941 1472 1051 1370T1161 1112Q1161 1002 1099 921T913 785Q1003 730 1047 652T1092 472Q1092 306 986 170Q832 -26 565
-26Q371 -26 253 88T135 380Q135 527 217 643T440 807ZM549 1053Q549 984 591 942T700 899Q777 899 835 957T894 1094Q894 1165 851 1209T741 1253Q662 1253 606 1195T549 1053ZM421 375Q421 293 466 246T583 199Q694 199 754 297T815 510Q815 584 769 631T650
679Q560 679 491 596T421 375Z" />
<glyph unicode="9" glyph-name="nine" horiz-adv-x="1139" d="M130 338L399 360Q407 274 440 239T531 204Q604 204 660 261Q742 344 790 529Q697 469 594 469Q424 469 314 584T204 900Q204 1124 345 1298T719 1472Q925 1472 1034 1322T1143 916Q1143 521 969 248T509
-25Q342 -25 242 70T130 338ZM867 1016Q867 1132 821 1186T707 1241Q623 1241 563 1163Q482 1058 482 881Q482 767 527 713T637 658Q692 658 748 700T835 832T867 1016Z" />
<glyph unicode=":" glyph-name="colon" horiz-adv-x="682" d="M366 1062H649L591 784H308L366 1062ZM202 277H486L428 0H144L202 277Z" />
<glyph unicode=";" glyph-name="semicolon" horiz-adv-x="682" d="M371 1062H655L597 784H313L371 1062ZM208 277H497L449 48Q408 -150 318 -232T83 -318L111 -185Q183 -169 222 -128T281 0H149L208 277Z" />
<glyph unicode="&lt;" glyph-name="less" horiz-adv-x="1196" d="M1180 167L175 604V846L1180 1281V996L479 728L1180 450V167Z" />
<glyph unicode="=" glyph-name="equal" horiz-adv-x="1196" d="M165 816V1074H1190V816H165ZM165 372V631H1190V372H165Z" />
<glyph unicode="&gt;" glyph-name="greater" horiz-adv-x="1196" d="M175 166V449L877 725L175 998V1279L1181 844V604L175 166Z" />
<glyph unicode="?" glyph-name="question" horiz-adv-x="1251" d="M700 366H442Q462 500 525 598T780 862Q941 1003 969 1048T998 1135Q998 1197 949 1238T799 1280Q687 1280 616 1219T515 1024L252 1070Q303 1265 449 1378T804 1491Q1022 1491 1144 1383T1266
1123Q1266 1035 1214 948T929 667Q783 545 749 497T700 366ZM412 277H696L638 0H354L412 277Z" />
<glyph unicode="@" glyph-name="at" horiz-adv-x="1997" d="M1849 19H2062Q1962 -184 1755 -299Q1518 -431 1177 -431Q847 -431 607 -320T250 9T133 483Q133 764 266 1006T630 1370T1158 1492Q1410 1492 1606 1394T1905 1116T2009 721Q2009 466 1852 260Q1655
0 1347 0Q1264 0 1222 29T1166 114Q1048 0 894 0Q728 0 619 114T509 419Q509 654 641 848Q801 1084 1051 1084Q1229 1084 1314 948L1339 1059H1603L1452 342Q1438 274 1438 254Q1438 229 1449 217T1477 204Q1525 204 1601 262Q1703 338 1766 466T1829 731Q1829
977 1651 1142T1154 1308Q883 1308 695 1198T411 887T315 469Q315 258 421 85T720 -167T1161 -247Q1400 -247 1572 -181T1849 19ZM768 430Q768 303 819 243T947 183Q1004 183 1054 211Q1092 231 1129 274Q1182 335 1220 452T1259 670Q1259 783 1207 843T1074 904Q988
904 915 838T805 648T768 430Z" />
<glyph unicode="A" glyph-name="A" horiz-adv-x="1479" d="M1044 324H463L287 0H-23L806 1466H1141L1379 0H1093L1044 324ZM1007 568L922 1158L568 568H1007Z" />
<glyph unicode="B" glyph-name="B" horiz-adv-x="1479" d="M82 0L389 1466H890Q1053 1466 1118 1456Q1226 1441 1301 1396T1415 1276T1454 1110Q1454 988 1386 899T1176 763Q1289 732 1352 653T1416 473Q1416 341 1341 223T1134 52T773 0H82ZM566 874H796Q951
874 1019 896T1121 968T1155 1075Q1155 1131 1123 1167T1032 1215Q999 1221 873 1221H639L566 874ZM433 236H724Q907 236 969 259T1069 337T1107 451Q1107 524 1053 571T873 619H513L433 236Z" />
<glyph unicode="C" glyph-name="C" horiz-adv-x="1479" d="M1146 528L1450 482Q1361 235 1183 105T766 -26Q497 -26 346 136T194 606Q194 856 295 1063T577 1381T969 1491Q1207 1491 1354 1364T1527 1016L1238 988Q1214 1116 1146 1173T963 1231Q838 1231 730
1155T556 918T491 595Q491 419 575 323T786 227Q903 227 1000 303T1146 528Z" />
<glyph unicode="D" glyph-name="D" horiz-adv-x="1479" d="M89 0L396 1466H791Q956 1466 1002 1461Q1093 1452 1164 1424T1294 1346T1395 1224T1461 1061T1484 858Q1484 621 1394 438T1166 146Q1061 62 895 22Q801 0 606 0H89ZM440 236H593Q759 236 833 256T970
333Q1059 414 1120 549T1181 867Q1181 1023 1131 1101T1006 1206Q954 1224 821 1224H646L440 236Z" />
<glyph unicode="E" glyph-name="E" horiz-adv-x="1366" d="M84 0L390 1466H1477L1426 1221H641L571 888H1330L1279 643H520L428 245H1281L1229 0H84Z" />
<glyph unicode="F" glyph-name="F" horiz-adv-x="1251" d="M80 0L387 1466H1413L1361 1221H637L563 869H1273L1222 624H512L382 0H80Z" />
<glyph unicode="G" glyph-name="G" horiz-adv-x="1593" d="M900 783H1556L1424 154Q1308 79 1140 27T796 -25Q524 -25 379 98Q181 266 181 585Q181 799 266 995Q368 1231 556 1361T998 1491Q1252 1491 1405 1373T1609 1029L1328 997Q1291 1121 1209 1184T1001
1247Q855 1247 733 1171T542 936T473 589Q473 404 557 316T803 227Q900 227 1002 254T1178 320L1223 538H849L900 783Z" />
<glyph unicode="H" glyph-name="H" horiz-adv-x="1479" d="M1095 655H528L391 0H89L396 1466H697L579 900H1146L1265 1466H1566L1260 0H958L1095 655Z" />
<glyph unicode="I" glyph-name="I" horiz-adv-x="569" d="M71 0L378 1466H679L373 0H71Z" />
<glyph unicode="J" glyph-name="J" horiz-adv-x="1139" d="M932 1466H1228L1043 578Q969 225 849 100T480 -25Q269 -25 164 72T59 336Q59 371 64 414L343 444Q337 400 337 371Q337 301 377 264T500 227Q616 227 663 295Q698 347 748 588L932 1466Z" />
<glyph unicode="K" glyph-name="K" horiz-adv-x="1479" d="M81 0L387 1466H689L559 843L1237 1466H1641L983 891L1466 0H1125L763 698L478 449L384 0H81Z" />
<glyph unicode="L" glyph-name="L" horiz-adv-x="1251" d="M92 0L399 1466H700L445 245H1191L1140 0H92Z" />
<glyph unicode="M" glyph-name="M" horiz-adv-x="1706" d="M927 0H641L588 1225L355 0H83L389 1466H819L864 439L1364 1466H1799L1492 0H1217L1506 1216L927 0Z" />
<glyph unicode="N" glyph-name="N" horiz-adv-x="1479" d="M1256 0H975L579 985L373 0H92L398 1466H680L1077 485L1282 1466H1562L1256 0Z" />
<glyph unicode="O" glyph-name="O" horiz-adv-x="1593" d="M179 575Q179 705 218 849Q269 1042 373 1184T637 1408T999 1491Q1271 1491 1438 1322T1606 874Q1606 642 1497 425T1201 91T778 -26Q573 -26 434 67T237 297T179 575ZM477 581Q477 430 569 328T811 226Q933
226 1045 306T1231 550T1305 869Q1305 1042 1212 1140T975 1239Q754 1239 616 1033T477 581Z" />
<glyph unicode="P" glyph-name="P" horiz-adv-x="1366" d="M385 0H83L390 1466H986Q1145 1466 1237 1429T1384 1305T1438 1098Q1438 987 1395 882T1290 714T1155 619T961 569Q890 559 695 559H502L385 0ZM552 802H645Q884 802 964 832T1090 928T1136 1073Q1136
1126 1113 1160T1047 1209T857 1225H641L552 802Z" />
<glyph unicode="Q" glyph-name="Q" horiz-adv-x="1593" d="M1078 29Q1008 2 933 -12T778 -26Q510 -26 345 141T179 579Q179 800 282 1026T572 1371T999 1491Q1271 1491 1438 1323T1605 874Q1605 660 1516 464T1276 146Q1372 52 1478 -8L1336 -195Q1196 -127 1078
29ZM1103 355Q1194 447 1249 593T1305 868Q1305 1042 1212 1140T975 1239Q876 1239 792 1194T638 1062T523 849T478 595Q478 424 572 326T814 227Q855 227 900 233Q916 236 919 239T923 248Q923 256 893 284Q830 344 759 370L869 538Q1004 470 1103 355Z" />
<glyph unicode="R" glyph-name="R" horiz-adv-x="1479" d="M392 0H90L397 1466H1048Q1216 1466 1309 1432T1460 1305T1518 1082Q1518 895 1406 774T1067 623Q1125 571 1176 486Q1277 314 1401 0H1077Q1038 124 924 387Q862 529 792 578Q749 607 642 607H519L392
0ZM565 827H725Q968 827 1047 856T1172 947T1217 1077Q1217 1157 1152 1197Q1112 1221 979 1221H647L565 827Z" />
<glyph unicode="S" glyph-name="S" horiz-adv-x="1366" d="M130 475L417 490Q423 353 464 305Q530 227 708 227Q856 227 922 280T988 408Q988 473 934 518Q896 551 726 625T477 748T353 877T308 1062Q308 1247 442 1369T830 1491Q1088 1491 1229 1370T1385 1048L1096
1035Q1085 1140 1020 1196T828 1252Q703 1252 650 1208T596 1097Q596 1034 645 993Q694 951 862 878Q1115 769 1184 701Q1287 601 1287 444Q1287 250 1134 113T706 -25Q517 -25 379 38T183 215T130 475Z" />
<glyph unicode="T" glyph-name="T" horiz-adv-x="1251" d="M722 0H420L676 1221H246L297 1466H1452L1401 1221H977L722 0Z" />
<glyph unicode="U" glyph-name="U" horiz-adv-x="1479" d="M391 1466H692L526 670L485 474Q481 449 481 427Q481 340 544 284T729 227Q838 227 909 268T1019 390T1098 665L1266 1466H1567L1400 664Q1347 411 1278 277T1069 59T715 -25Q459 -25 323 100T187 423Q187
464 194 512Q198 544 229 694L391 1466Z" />
<glyph unicode="V" glyph-name="V" horiz-adv-x="1366" d="M817 0H495L232 1466H533L719 357L1326 1466H1625L817 0Z" />
<glyph unicode="W" glyph-name="W" horiz-adv-x="1933" d="M1478 0H1173L1140 1072L606 0H295L240 1466H535L548 440L1051 1466H1378L1412 451L1895 1466H2187L1478 0Z" />
<glyph unicode="X" glyph-name="X" horiz-adv-x="1366" d="M328 0H-62L585 742L221 1466H536L679 1191Q686 1176 777 988Q783 978 790 961Q912 1110 995 1205L1226 1466H1605L934 694L1295 0H955L845 221Q759 396 731 472Q692 413 530 228L328 0Z" />
<glyph unicode="Y" glyph-name="Y" horiz-adv-x="1366" d="M821 0H520L639 571L235 1466H556L738 1052Q803 903 825 837Q862 902 911 975L1050 1169L1257 1466H1607L935 543L821 0Z" />
<glyph unicode="Z" glyph-name="Z" horiz-adv-x="1251" d="M51 0L99 231L943 1221H260L311 1466H1368L1324 1236L471 240Q607 243 628 243Q724 243 893 245H1239L1188 0H51Z" />
<glyph unicode="[" glyph-name="bracketleft" horiz-adv-x="682" d="M554 -190L509 -404H20L411 1466H899L853 1243H634L335 -190H554Z" />
<glyph unicode="\" glyph-name="backslash" horiz-adv-x="569" d="M387 -25L160 1491H361L588 -25H387Z" />
<glyph unicode="]" glyph-name="bracketright" horiz-adv-x="682" d="M232 1252L277 1466H768L377 -404H-114L-67 -180H154L453 1252H232Z" />
<glyph unicode="^" glyph-name="asciicircum" horiz-adv-x="1196" d="M215 692L591 1491H814L1180 692H896L698 1181L501 692H215Z" />
<glyph unicode="_" glyph-name="underscore" horiz-adv-x="1139" d="M-19 -405V-223H1149V-405H-19Z" />
<glyph unicode="`" glyph-name="grave" horiz-adv-x="682" d="M274 1499H550L678 1200H484L274 1499Z" />
<glyph unicode="a" glyph-name="a" horiz-adv-x="1139" d="M487 761L207 785Q255 927 374 1007T691 1087Q896 1087 994 1005T1092 803Q1092 755 1084 701T1024 417Q982 227 982 151Q982 83 1006 0H727Q710 58 706 120Q643 50 561 13T396 -25Q264 -25 178 61T92
284Q92 436 186 527T524 637Q729 654 798 678Q816 738 816 774Q816 820 779 851T669 882Q592 882 548 851T487 761ZM760 495Q734 488 691 482Q475 456 409 406Q362 370 362 309Q362 259 398 225T493 190Q558 190 615 221T701 302T752 457L760 495Z" />
<glyph unicode="b" glyph-name="b" horiz-adv-x="1251" d="M74 0L380 1466H668L565 976Q644 1036 712 1061T862 1087Q1030 1087 1131 975T1232 647Q1232 502 1185 366T1058 144T891 17T707 -25Q479 -25 372 175L335 0H74ZM461 433Q461 326 521 259T664 192Q736
192 801 244T910 410T954 640Q954 753 896 817T754 882Q646 882 568 782Q461 645 461 433Z" />
<glyph unicode="c" glyph-name="c" horiz-adv-x="1139" d="M802 400L1081 355Q1012 169 877 72T564 -25Q361 -25 242 96T123 429Q123 602 195 756T412 998T730 1087Q918 1087 1030 989T1156 731L883 702Q873 791 829 833T712 875Q629 875 557 813T447 628T408
396Q408 302 454 251T569 200Q638 200 702 250T802 400Z" />
<glyph unicode="d" glyph-name="d" horiz-adv-x="1251" d="M1063 0H791L815 115Q737 40 662 8T491 -25Q326 -25 224 87T121 420Q121 675 265 881T646 1087Q860 1087 967 917L1082 1466H1369L1063 0ZM400 432Q400 318 457 254T599 190Q677 190 744 243T852 407T893
618Q893 733 831 804T688 875Q562 875 481 735T400 432Z" />
<glyph unicode="e" glyph-name="e" horiz-adv-x="1139" d="M1116 442H396Q395 425 395 416Q395 310 455 245T603 180Q746 180 826 328L1083 285Q1008 130 883 53T601 -25Q387 -25 253 110T119 469Q119 687 240 857Q405 1087 711 1087Q906 1087 1021 967T1136 629Q1136
525 1116 442ZM874 617Q875 636 875 646Q875 764 822 823T680 882Q591 882 521 815T425 617H874Z" />
<glyph unicode="f" glyph-name="f" horiz-adv-x="682" d="M822 1062L778 852H575L397 0H110L288 852H128L172 1062H332L355 1171Q383 1305 408 1352Q442 1416 509 1453T686 1491Q818 1491 964 1443L908 1238Q805 1273 741 1273Q692 1273 668 1242Q652 1222 635
1137L619 1062H822Z" />
<glyph unicode="g" glyph-name="g" horiz-adv-x="1251" d="M67 -56L370 -100Q370 -146 385 -169T433 -209T525 -226Q616 -226 671 -190Q712 -162 738 -100Q754 -61 779 70L789 120Q640 -4 481 -4Q325 -4 225 106T125 428Q125 615 193 771T384 1007T635 1087Q741
1087 829 1031T966 874L1006 1062H1275L1091 177Q1046 -36 1015 -127T944 -272T843 -362T699 -415T519 -431Q294 -431 179 -354T64 -98Q64 -79 67 -56ZM405 457Q405 336 459 273T596 209Q671 209 741 266T849 428T887 631Q887 744 826 813T685 882Q608 882 544
821T437 633Q405 535 405 457Z" />
<glyph unicode="h" glyph-name="h" horiz-adv-x="1251" d="M373 0H86L393 1466H680L570 944Q667 1020 751 1053T931 1087Q1060 1087 1135 1013T1210 819Q1210 755 1182 621L1052 0H765L898 633Q919 736 919 765Q919 818 886 850T796 882Q724 882 658 832Q572 766
527 670Q502 617 461 421L373 0Z" />
<glyph unicode="i" glyph-name="i" horiz-adv-x="569" d="M388 1466H675L621 1206H334L388 1466ZM304 1062H591L369 0H82L304 1062Z" />
<glyph unicode="j" glyph-name="j" horiz-adv-x="569" d="M390 1466H678L624 1206H336L390 1466ZM306 1062H594L405 163Q325 -222 268 -304Q182 -431 -8 -431Q-126 -431 -224 -399L-179 -162Q-110 -179 -63 -179Q-5 -179 30 -134T122 182L306 1062Z" />
<glyph unicode="k" glyph-name="k" horiz-adv-x="1139" d="M77 0L384 1466H671L511 703L885 1062H1258L831 676L1058 0H771L625 491L431 319L364 0H77Z" />
<glyph unicode="l" glyph-name="l" horiz-adv-x="569" d="M80 0L387 1466H673L367 0H80Z" />
<glyph unicode="m" glyph-name="m" horiz-adv-x="1821" d="M295 1062H565L538 933Q696 1087 870 1087Q990 1087 1055 1037T1138 899Q1193 979 1296 1033T1510 1087Q1637 1087 1708 1019T1779 839Q1779 784 1751 649L1615 0H1328L1464 649Q1489 771 1489 787Q1489
831 1463 856T1383 882Q1276 882 1192 769Q1131 688 1088 482L987 0H700L834 642Q857 753 857 786Q857 828 829 855T750 882Q703 882 653 854T566 777T501 651Q489 615 462 488L360 0H73L295 1062Z" />
<glyph unicode="n" glyph-name="n" horiz-adv-x="1251" d="M308 1062H580L552 924Q654 1012 742 1049T929 1087Q1060 1087 1135 1012T1211 813Q1211 757 1178 601L1053 0H766L892 603Q920 738 920 764Q920 819 888 850T797 882Q734 882 657 829T536 689Q504 627
464 436L373 0H86L308 1062Z" />
<glyph unicode="o" glyph-name="o" horiz-adv-x="1251" d="M124 441Q124 736 290 911T728 1087Q963 1087 1095 958T1227 609Q1227 351 1062 163T620 -25Q470 -25 354 35T181 205T124 441ZM942 646Q942 748 883 809T729 871Q636 871 564 814T452 647T412 445Q412
331 474 264T630 197Q748 197 828 298Q942 441 942 646Z" />
<glyph unicode="p" glyph-name="p" horiz-adv-x="1251" d="M295 1062H567L544 953Q631 1025 707 1056T870 1087Q1037 1087 1138 972T1240 629Q1240 342 1065 144Q915 -25 710 -25Q499 -25 391 146L276 -405H-11L295 1062ZM468 453Q468 329 528 261T671 192Q742
192 808 243T917 414T961 636Q961 755 904 818T759 882Q677 882 610 824T505 652T468 453Z" />
<glyph unicode="q" glyph-name="q" horiz-adv-x="1251" d="M1016 1062H1280L974 -405H687L790 90Q714 28 647 2T495 -25Q326 -25 224 88T122 417Q122 588 191 750T382 999T648 1087Q878 1087 981 895L1016 1062ZM399 422Q399 315 457 252T597 189Q670 189 738
238T848 402T891 621Q891 740 830 807T689 875Q623 875 555 823T443 652T399 422Z" />
<glyph unicode="r" glyph-name="r" horiz-adv-x="797" d="M288 1062H556L513 856Q663 1087 838 1087Q900 1087 971 1056L861 821Q822 835 778 835Q704 835 628 779T508 630T423 333L353 0H66L288 1062Z" />
<glyph unicode="s" glyph-name="s" horiz-adv-x="1139" d="M45 297L323 341Q360 253 415 217T565 180Q663 180 722 224Q763 254 763 297Q763 326 742 349Q720 371 623 403Q363 489 301 539Q204 617 204 743Q204 869 298 960Q429 1087 687 1087Q892 1087 997 1012T1130
809L865 763Q844 821 797 850Q733 889 643 889Q553 889 514 859T474 790Q474 750 514 724Q539 708 675 668Q885 607 956 548Q1056 465 1056 348Q1056 197 929 86T571 -25Q341 -25 216 59T45 297Z" />
<glyph unicode="t" glyph-name="t" horiz-adv-x="682" d="M154 849L198 1062H338L373 1232L702 1430L625 1062H800L756 849H580L487 404Q462 283 462 266Q462 233 483 215T559 196Q578 196 654 203L609 -10Q535 -25 457 -25Q305 -25 236 33T167 196Q167 245 204
422L293 849H154Z" />
<glyph unicode="u" glyph-name="u" horiz-adv-x="1251" d="M302 1062H589L458 433Q434 320 434 292Q434 246 468 213T555 180Q593 180 630 194T706 238T776 306T834 406Q853 452 875 556L981 1062H1268L1046 0H778L808 144Q632 -25 425 -25Q294 -25 219 50T144
251Q144 306 178 470L302 1062Z" />
<glyph unicode="v" glyph-name="v" horiz-adv-x="1139" d="M613 0H366L153 1062H435L510 599Q541 411 547 349Q555 366 616 478T692 614L956 1062H1266L613 0Z" />
<glyph unicode="w" glyph-name="w" horiz-adv-x="1593" d="M1192 0H922L870 676L546 0H280L147 1062H402L476 350L807 1062H1068L1104 350L1433 1062H1721L1192 0Z" />
<glyph unicode="x" glyph-name="x" horiz-adv-x="1139" d="M571 298L307 0H-45L446 544L176 1062H481L636 759L905 1062H1254L761 511L1029 0H724L571 298Z" />
<glyph unicode="y" glyph-name="y" horiz-adv-x="1139" d="M171 1062H457L529 533Q556 329 559 247Q615 410 713 591L967 1062H1271L615 -104Q534 -249 488 -307T376 -398T218 -431Q127 -431 13 -399L38 -185Q90 -200 139 -200Q271 -200 356 0L171 1062Z" />
<glyph unicode="z" glyph-name="z" horiz-adv-x="1024" d="M34 0L75 194L657 838H182L229 1062H1062L1027 891L440 232H951L902 0H34Z" />
<glyph unicode="{" glyph-name="braceleft" horiz-adv-x="797" d="M86 410L138 650Q211 654 253 672T332 735T390 839T439 1026Q477 1209 516 1286T609 1405T759 1474Q822 1491 952 1491H1004L953 1252Q839 1252 802 1238T747 1193Q733 1172 702 1046Q646 824
627 776Q591 689 542 635T404 530Q463 491 491 436T519 290Q519 255 507 183Q474 -12 466 -48T457 -108Q457 -135 471 -154T514 -182T639 -191L587 -431H534Q396 -431 328 -409T223 -334T186 -200Q186 -133 221 26T256 239Q256 326 219 365T86 410Z" />
<glyph unicode="|" glyph-name="bar" horiz-adv-x="573" d="M176 -431V1491H399V-431H176Z" />
<glyph unicode="}" glyph-name="braceright" horiz-adv-x="797" d="M692 410Q603 406 552 374T463 271T390 26T315 -225T222 -344T73 -413Q9 -431 -121 -431H-174L-122 -191Q-14 -191 25 -176T84 -130Q98 -109 129 14Q184 234 201 278Q236 365 290 426T426 530Q360
579 335 630T310 770Q310 806 322 876Q354 1068 363 1107T372 1174Q372 1201 360 1218T319 1243T190 1252L242 1491H295Q433 1491 501 1469T606 1395T643 1262Q643 1194 608 1035T573 822Q573 735 610 695T744 650L692 410Z" />
<glyph unicode="~" glyph-name="asciitilde" horiz-adv-x="1196" d="M137 519V778Q208 855 292 890Q353 916 437 916Q500 916 558 901T767 824Q867 783 925 783Q1068 783 1199 924V654Q1151 604 1068 562T907 520Q856 520 805 533T652 591Q498 658 410 658Q270
658 137 519Z" />
<glyph unicode="&#xa0;" glyph-name="space" horiz-adv-x="569" />
<glyph unicode="&#xa1;" glyph-name="exclamdown" horiz-adv-x="682" d="M566 784H282L340 1062H624L566 784ZM332 689H490L398 -60L326 -404H24L101 -34L332 689Z" />
<glyph unicode="&#xa2;" glyph-name="cent" horiz-adv-x="1139" d="M347 18Q245 65 183 173T120 431Q120 611 196 765T416 1003T721 1087Q751 1087 785 1084L940 1462L1061 1413L914 1054Q1017 1013 1081 929T1152 731L900 705Q890 800 831 853L560 192Q571 191
576 191Q644 191 706 239T813 399L1077 358Q1013 174 879 75T570 -25Q526 -25 474 -17L319 -395L197 -347L347 18ZM439 243L707 894Q611 888 537 819T427 630T390 404Q390 296 439 243Z" />
<glyph unicode="&#xa3;" glyph-name="sterling" horiz-adv-x="1139" d="M333 841Q316 927 316 1005Q316 1214 457 1352T816 1491Q1006 1491 1121 1384T1250 1095L993 1070Q976 1177 928 1223T805 1269Q713 1269 647 1194T580 983Q580 933 595 841H848L801 617H606Q600
504 554 416T394 224Q468 254 542 254Q580 254 640 243Q726 227 776 227Q887 227 1004 280L1090 36Q1003 0 954 -11Q889 -25 821 -25Q723 -25 588 12T366 49Q229 49 72 -37L42 222Q142 265 216 342T323 488Q347 538 356 617H126L173 841H333Z" />
<glyph unicode="&#xa4;" glyph-name="currency" horiz-adv-x="1139" d="M267 941L135 1072L301 1250L437 1114Q490 1143 544 1157T655 1171Q712 1171 767 1157T874 1114L1008 1248L1175 1079L1043 946Q1071 895 1085 841T1099 728Q1099 671 1085 617T1043 510L1177
377L1010 206L874 342Q824 314 770 300T656 285Q600 285 546 299T440 341L310 210L140 378L270 510Q242 562 228 616T213 728Q213 785 226 838T267 941ZM454 728Q454 644 513 585T656 526Q740 526 799 585T858 728Q858 812 799 871T656 930Q572 930 513 871T454
728Z" />
<glyph unicode="&#xa5;" glyph-name="yen" horiz-adv-x="1139" d="M647 0H364L422 278H49L89 471H462L489 598H116L156 791H428L224 1466H516L587 1207Q614 1106 666 839Q787 1080 911 1271L1038 1466H1365L902 791H1181L1141 598H772L746 471H1114L1074 278H706L647 0Z" />
<glyph unicode="&#xa6;" glyph-name="brokenbar" horiz-adv-x="573" d="M176 701V1491H399V701H176ZM176 -431V360H399V-431H176Z" />
<glyph unicode="&#xa7;" glyph-name="section" horiz-adv-x="1139" d="M44 -87L305 -28Q332 -138 384 -183T513 -229Q581 -229 616 -197T651 -118Q651 -84 624 -41T363 227Q239 345 189 425T139 598Q139 716 206 803T407 963Q347 1060 347 1154Q347 1292 448 1391T749
1491Q930 1491 1028 1406T1147 1150L888 1125Q882 1213 843 1253T738 1293Q677 1293 642 1258T606 1167Q606 1126 630 1085T778 932Q992 740 1042 651T1092 472Q1092 368 1026 275T832 118Q916 1 916 -105Q916 -240 808 -337T507 -434Q319 -434 197 -338T44 -87ZM521
819Q442 770 415 728T387 636Q387 588 421 541Q443 512 593 367Q698 266 706 258Q777 285 822 340Q851 375 851 420Q851 458 827 500T719 624Q534 804 521 819Z" />
<glyph unicode="&#xa8;" glyph-name="dieresis" horiz-adv-x="682" d="M224 1468H470L419 1223H173L224 1468ZM645 1468H891L840 1223H594L645 1468Z" />
<glyph unicode="&#xa9;" glyph-name="copyright" horiz-adv-x="1509" d="M855 1496Q1052 1496 1233 1397T1517 1115T1621 730Q1621 530 1520 349T1237 66T855 -36Q655 -36 474 65T191 348T89 730Q89 931 192 1114T477 1397T855 1496ZM855 1345Q697 1345 552 1266T323
1040T240 730Q240 570 321 424T549 197T855 115Q1015 115 1161 196T1388 424T1470 730Q1470 891 1387 1039T1159 1266T855 1345ZM1041 616L1202 562Q1164 436 1076 369T866 302Q695 302 587 414T479 723Q479 852 527 953T665 1104T868 1154Q991 1154 1073 1096T1202
911L1040 873Q1012 946 968 979T862 1012Q771 1012 713 944T655 729Q655 583 712 514T849 445Q916 445 965 484T1041 616Z" />
<glyph unicode="&#xaa;" glyph-name="ordfeminine" horiz-adv-x="758" d="M427 1253L235 1279Q277 1381 361 1436T572 1491Q712 1491 778 1435T844 1293Q844 1223 803 1064T761 863Q761 810 782 759H590Q582 781 579 806Q488 743 382 743Q284 743 226 800T168
946Q168 1026 214 1081T352 1159Q410 1173 636 1196Q650 1249 650 1277Q650 1302 629 1318T562 1335Q472 1335 427 1253ZM592 1054Q429 1035 397 1013T364 954Q364 926 385 907T441 887Q495 887 532 921T592 1054Z" />
<glyph unicode="&#xab;" glyph-name="guillemotleft" horiz-adv-x="1139" d="M577 553L966 977H1210L856 531L983 71H777L577 553ZM168 552L580 977H821L460 533L592 71H391L168 552Z" />
<glyph unicode="&#xac;" glyph-name="logicalnot" horiz-adv-x="1196" d="M933 376V817H165V1074H1190V376H933Z" />
<glyph unicode="&#xad;" glyph-name="hyphen" horiz-adv-x="682" d="M137 667H694L636 390H79L137 667Z" />
<glyph unicode="&#xae;" glyph-name="registered" horiz-adv-x="1509" d="M855 1496Q1052 1496 1233 1398T1517 1115T1621 730Q1621 530 1520 349T1237 66T855 -36Q655 -36 474 65T191 348T89 730Q89 931 192 1115T477 1397T855 1496ZM856 1346Q698 1346 553 1267T325
1040T241 730Q241 569 322 423T550 195T856 113Q1017 113 1162 195T1390 423T1472 730Q1472 892 1389 1040T1160 1267T856 1346ZM509 320V1133H674Q906 1133 934 1131Q1016 1124 1061 1099T1137 1021T1168 904Q1168 816 1111 754T949 676Q986 662 1006 646T1061
583Q1070 571 1121 484L1217 320H1013L945 452Q876 585 831 619T717 654H674V320H509ZM674 782H741Q884 782 918 793T973 831T993 894Q993 928 974 954T918 992T741 1004H674V782Z" />
<glyph unicode="&#xaf;" glyph-name="overscore" horiz-adv-x="1131" d="M140 1552V1735H1308V1552H140Z" />
<glyph unicode="0;" glyph-name="degree" horiz-adv-x="819" d="M225 1172Q225 1305 318 1398T544 1491Q676 1491 769 1398T863 1172Q863 1040 770 947T544 853Q412 853 319 946T225 1172ZM391 1172Q391 1109 436 1064T544 1019Q607 1019 652 1064T697 1172Q697
1235 652 1280T544 1325Q481 1325 436 1280T391 1172Z" />
<glyph unicode="1;" glyph-name="plusminus" horiz-adv-x="1124" d="M514 356V737H130V1000H514V1381H770V1000H1155V737H770V356H514ZM130 0V263H1155V0H130Z" />
<glyph unicode="2;" glyph-name="twosuperior" horiz-adv-x="682" d="M437 1226L248 1249Q270 1364 344 1424T540 1484Q672 1484 741 1423T811 1275Q811 1213 765 1143T550 951Q524 933 472 885H756L717 727H168Q181 814 226 877T444 1078Q576 1182 599 1217T623
1276Q623 1305 602 1325T544 1345Q505 1345 479 1320T437 1226Z" />
<glyph unicode="3;" glyph-name="threesuperior" horiz-adv-x="682" d="M156 944L342 962Q352 901 374 880T439 859Q495 859 527 889T560 961Q560 998 535 1021T461 1044Q444 1044 415 1039L453 1189Q471 1187 483 1187Q545 1187 575 1213T605 1280Q605 1308
588 1323Q566 1342 530 1342Q495 1342 470 1320T427 1241L247 1271Q281 1364 328 1406Q413 1484 543 1484Q665 1484 731 1425T798 1284Q798 1241 779 1203T730 1145Q689 1120 682 1114L681 1107Q685 1101 716 1073Q756 1036 756 964Q756 873 667 794T438 715Q316
715 245 774T156 944Z" />
<glyph unicode="4;" glyph-name="acute" horiz-adv-x="682" d="M585 1496H891L567 1196H376L585 1496Z" />
<glyph unicode="5;" glyph-name="mu1" horiz-adv-x="1180" d="M235 1062H522L420 570L394 450Q388 409 388 371Q388 289 435 239T552 189Q631 189 693 251T796 506L913 1062H1197L973 0H717L738 99Q659 18 616 -3T523 -25Q457 -25 411 6T321 113L211 -411H-76L235
1062Z" />
<glyph unicode="6;" glyph-name="paragraph" horiz-adv-x="1139" d="M727 -403H484V644Q294 658 192 766T90 1052Q90 1157 131 1244T241 1383T405 1454Q461 1466 624 1466H1221V1205H1108V-403H871V1205H727V-403Z" />
<glyph unicode="7;" glyph-name="middot" horiz-adv-x="682" d="M338 872H621L564 594H280L338 872Z" />
<glyph unicode="8;" glyph-name="cedilla" horiz-adv-x="682" d="M14 -421L62 -305L119 -306Q204 -306 282 -282Q331 -267 348 -247T365 -204Q365 -175 339 -155T249 -134Q217 -134 159 -143L193 -44Q265 -26 324 -26Q434 -26 490 -74T547 -191Q547 -275 459
-337Q337 -425 111 -425Q48 -425 14 -421Z" />
<glyph unicode="9;" glyph-name="onesuperior" horiz-adv-x="682" d="M235 1141L274 1296Q397 1344 449 1371Q551 1425 619 1486H741L553 727H357L480 1219Q362 1163 235 1141Z" />
<glyph unicode="a;" glyph-name="ordmasculine" horiz-adv-x="748" d="M148 1050Q148 1221 253 1356T533 1491Q674 1491 761 1405T849 1184Q849 1088 801 976T663 803T458 742Q318 742 233 827T148 1050ZM350 1026Q350 973 380 942T459 911Q541 911 593 1008T645
1209Q645 1263 616 1293T537 1324Q455 1324 403 1229T350 1026Z" />
<glyph unicode="b;" glyph-name="guillemotright" horiz-adv-x="1139" d="M679 496L290 71H46L399 518L273 977H479L679 496ZM1088 497L675 71H435L796 516L663 977H865L1088 497Z" />
<glyph unicode="c;" glyph-name="onequarter" horiz-adv-x="1708" d="M235 1139L274 1294Q397 1342 449 1369Q551 1424 619 1484H741L553 726H357L480 1217Q362 1161 235 1139ZM378 -61H204L1546 1484H1720L378 -61ZM1377 106H1025L1060 247L1534 712H1701L1587
246H1692L1655 106H1550L1513 -42H1340L1377 106ZM1415 246L1475 473L1248 246H1415Z" />
<glyph unicode="d;" glyph-name="onehalf" horiz-adv-x="1708" d="M235 1139L274 1294Q280 1297 289 1300Q490 1370 619 1484H742L553 726H357L480 1217L460 1208Q362 1161 235 1139ZM348 -61H174L1516 1484H1690L348 -61ZM1337 457L1147 480Q1170 595 1244
655T1440 715Q1572 715 1641 654T1711 506Q1711 444 1665 374T1450 182Q1424 163 1372 116H1656L1617 -42H1068Q1080 44 1126 107T1344 308Q1475 413 1499 448T1523 507Q1523 536 1502 555T1444 575Q1405 575 1379 551T1337 457Z" />
<glyph unicode="e;" glyph-name="threequarters" horiz-adv-x="1708" d="M155 944L341 962Q351 901 373 880T438 859Q494 859 526 889T559 961Q559 998 534 1021T460 1044Q443 1044 414 1039L452 1189Q470 1187 482 1187Q544 1187 574 1213T604 1280Q604 1308
587 1323Q565 1342 529 1342Q494 1342 469 1320T426 1241L246 1271Q280 1364 327 1406Q412 1484 542 1484Q664 1484 730 1425T797 1284Q797 1241 778 1203T729 1145Q688 1120 681 1114L680 1107Q684 1101 715 1073Q755 1036 755 964Q755 873 666 794T437 715Q315
715 244 774T155 944ZM402 -61H228L1570 1484H1744L402 -61ZM1377 106H1025L1060 247L1534 712H1700L1587 246H1691L1654 106H1549L1512 -42H1340L1377 106ZM1414 246L1475 473L1248 246H1414Z" />
<glyph unicode="f;" glyph-name="questiondown" horiz-adv-x="1251" d="M909 784H625L683 1062H967L909 784ZM621 696H879Q859 562 796 464T541 199Q380 59 352 14T323 -74Q323 -136 372 -177T522 -218Q634 -218 705 -157T807 37L1069 -9Q1019 -203 873 -316T517
-429Q299 -429 177 -321T55 -62Q55 27 107 114T392 395Q538 517 572 565T621 696Z" />
<glyph unicode="0;" glyph-name="Agrave" horiz-adv-x="1479" d="M1044 324H463L287 0H-23L806 1466H1141L1379 0H1093L1044 324ZM1007 568L922 1158L568 568H1007ZM758 1854H1034L1162 1555H968L758 1854Z" />
<glyph unicode="1;" glyph-name="Aacute" horiz-adv-x="1479" d="M1044 324H463L287 0H-23L806 1466H1141L1379 0H1093L1044 324ZM1007 568L922 1158L568 568H1007ZM1099 1851H1405L1081 1551H890L1099 1851Z" />
<glyph unicode="2;" glyph-name="Acircumflex" horiz-adv-x="1479" d="M1044 324H463L287 0H-23L806 1466H1141L1379 0H1093L1044 324ZM1007 568L922 1158L568 568H1007ZM1011 1731L835 1553H599L896 1854H1164L1286 1553H1088L1011 1731Z" />
<glyph unicode="3;" glyph-name="Atilde" horiz-adv-x="1479" d="M1044 324H463L287 0H-23L806 1466H1141L1379 0H1093L1044 324ZM1007 568L922 1158L568 568H1007ZM764 1548H638Q665 1670 702 1719Q756 1789 836 1789Q888 1789 1022 1740Q1100 1712 1129
1712Q1152 1712 1168 1726T1198 1790H1326Q1307 1667 1251 1609T1124 1550Q1079 1550 980 1590T854 1630Q824 1630 802 1613T764 1548Z" />
<glyph unicode="4;" glyph-name="Adieresis" horiz-adv-x="1479" d="M1044 324H463L287 0H-23L806 1466H1141L1379 0H1093L1044 324ZM1007 568L922 1158L568 568H1007ZM727 1794H973L922 1549H676L727 1794ZM1148 1794H1394L1343 1549H1097L1148 1794Z" />
<glyph unicode="5;" glyph-name="Aring" horiz-adv-x="1479" d="M1044 561H463L287 237H-23L806 1703H1141L1379 237H1093L1044 561ZM1007 805L922 1395L568 805H1007ZM781 1556Q781 1636 837 1692T974 1749Q1054 1749 1110 1693T1167 1556Q1167 1476 1111
1420T974 1363Q894 1363 838 1419T781 1556ZM890 1556Q890 1521 914 1497T974 1472Q1009 1472 1033 1496T1058 1556Q1058 1591 1034 1616T974 1641Q939 1641 915 1616T890 1556Z" />
<glyph unicode="6;" glyph-name="AE" horiz-adv-x="2048" d="M941 367H452L244 0H-66L786 1466H2169L2118 1221H1400L1330 886H2020L1968 641H1279L1196 245H1971L1920 0H864L941 367ZM992 612L1119 1221H940L594 612H992Z" />
<glyph unicode="7;" glyph-name="Ccedilla" horiz-adv-x="1479" d="M1146 528L1450 482Q1361 235 1183 105T766 -26Q497 -26 346 136T194 606Q194 856 295 1063T577 1381T969 1491Q1207 1491 1354 1364T1527 1016L1238 988Q1214 1116 1146 1173T963 1231Q838
1231 730 1155T556 918T491 595Q491 419 575 323T786 227Q903 227 1000 303T1146 528ZM406 -415L454 -299L511 -300Q596 -300 674 -276Q723 -261 740 -241T757 -198Q757 -169 731 -149T641 -128Q609 -128 551 -137L585 -38Q657 -20 716 -20Q826 -20 882 -68T939
-185Q939 -269 851 -331Q729 -419 503 -419Q440 -419 406 -415Z" />
<glyph unicode="8;" glyph-name="Egrave" horiz-adv-x="1366" d="M84 0L390 1466H1477L1426 1221H641L571 888H1330L1279 643H520L428 245H1281L1229 0H84ZM781 1854H1057L1185 1555H991L781 1854Z" />
<glyph unicode="9;" glyph-name="Eacute" horiz-adv-x="1366" d="M84 0L390 1466H1477L1426 1221H641L571 888H1330L1279 643H520L428 245H1281L1229 0H84ZM1075 1851H1381L1057 1551H866L1075 1851Z" />
<glyph unicode="a;" glyph-name="Ecircumflex" horiz-adv-x="1366" d="M84 0L390 1466H1477L1426 1221H641L571 888H1330L1279 643H520L428 245H1281L1229 0H84ZM978 1731L802 1553H566L863 1854H1131L1253 1553H1055L978 1731Z" />
<glyph unicode="b;" glyph-name="Edieresis" horiz-adv-x="1366" d="M84 0L390 1466H1477L1426 1221H641L571 888H1330L1279 643H520L428 245H1281L1229 0H84ZM679 1794H925L874 1549H628L679 1794ZM1100 1794H1346L1295 1549H1049L1100 1794Z" />
<glyph unicode="c;" glyph-name="Igrave" horiz-adv-x="569" d="M71 0L378 1466H679L373 0H71ZM380 1854H656L784 1555H590L380 1854Z" />
<glyph unicode="d;" glyph-name="Iacute" horiz-adv-x="569" d="M71 0L378 1466H679L373 0H71ZM618 1851H924L600 1551H409L618 1851Z" />
<glyph unicode="e;" glyph-name="Icircumflex" horiz-adv-x="569" d="M71 0L378 1466H679L373 0H71ZM598 1731L422 1553H186L483 1854H751L873 1553H675L598 1731Z" />
<glyph unicode="f;" glyph-name="Idieresis" horiz-adv-x="569" d="M71 0L378 1466H679L373 0H71ZM260 1794H506L455 1549H209L260 1794ZM681 1794H927L876 1549H630L681 1794Z" />
<glyph unicode="&#xd0;" glyph-name="Eth" horiz-adv-x="1479" d="M89 0L226 641H75L113 819H263L401 1466H791Q957 1466 1003 1461Q1094 1452 1165 1424T1295 1346T1396 1224T1462 1061T1485 858Q1485 620 1395 440T1187 162T902 24Q806 0 606 0H89ZM441 236H593Q759
236 833 256T970 333Q1060 415 1120 549T1181 867Q1181 1023 1131 1101T1007 1206Q954 1224 821 1224H651L565 819H878L840 642H527L441 236Z" />
<glyph unicode="&#xd1;" glyph-name="Ntilde" horiz-adv-x="1479" d="M1256 0H975L579 985L373 0H92L398 1466H680L1077 485L1282 1466H1562L1256 0ZM782 1548H656Q683 1670 720 1719Q774 1789 854 1789Q906 1789 1040 1740Q1118 1712 1147 1712Q1170 1712 1186
1726T1216 1790H1344Q1325 1667 1269 1609T1142 1550Q1097 1550 998 1590T872 1630Q842 1630 820 1613T782 1548Z" />
<glyph unicode="&#xd2;" glyph-name="Ograve" horiz-adv-x="1593" d="M179 575Q179 705 218 849Q269 1042 373 1184T637 1408T999 1491Q1271 1491 1438 1322T1606 874Q1606 642 1497 425T1201 91T778 -26Q573 -26 434 67T237 297T179 575ZM477 581Q477 430 569
328T811 226Q933 226 1045 306T1231 550T1305 869Q1305 1042 1212 1140T975 1239Q754 1239 616 1033T477 581ZM771 1854H1047L1175 1555H981L771 1854Z" />
<glyph unicode="&#xd3;" glyph-name="Oacute" horiz-adv-x="1593" d="M179 575Q179 705 218 849Q269 1042 373 1184T637 1408T999 1491Q1271 1491 1438 1322T1606 874Q1606 642 1497 425T1201 91T778 -26Q573 -26 434 67T237 297T179 575ZM477 581Q477 430 569
328T811 226Q933 226 1045 306T1231 550T1305 869Q1305 1042 1212 1140T975 1239Q754 1239 616 1033T477 581ZM1159 1851H1465L1141 1551H950L1159 1851Z" />
<glyph unicode="&#xd4;" glyph-name="Ocircumflex" horiz-adv-x="1593" d="M179 575Q179 705 218 849Q269 1042 373 1184T637 1408T999 1491Q1271 1491 1438 1322T1606 874Q1606 642 1497 425T1201 91T778 -26Q573 -26 434 67T237 297T179 575ZM477 581Q477 430
569 328T811 226Q933 226 1045 306T1231 550T1305 869Q1305 1042 1212 1140T975 1239Q754 1239 616 1033T477 581ZM1093 1731L917 1553H681L978 1854H1246L1368 1553H1170L1093 1731Z" />
<glyph unicode="&#xd5;" glyph-name="Otilde" horiz-adv-x="1593" d="M179 575Q179 705 218 849Q269 1042 373 1184T637 1408T999 1491Q1271 1491 1438 1322T1606 874Q1606 642 1497 425T1201 91T778 -26Q573 -26 434 67T237 297T179 575ZM477 581Q477 430 569
328T811 226Q933 226 1045 306T1231 550T1305 869Q1305 1042 1212 1140T975 1239Q754 1239 616 1033T477 581ZM800 1548H674Q701 1670 738 1719Q792 1789 872 1789Q924 1789 1058 1740Q1136 1712 1165 1712Q1188 1712 1204 1726T1234 1790H1362Q1343 1667 1287
1609T1160 1550Q1115 1550 1016 1590T890 1630Q860 1630 838 1613T800 1548Z" />
<glyph unicode="&#xd6;" glyph-name="Odieresis" horiz-adv-x="1593" d="M179 575Q179 705 218 849Q269 1042 373 1184T637 1408T999 1491Q1271 1491 1438 1322T1606 874Q1606 642 1497 425T1201 91T778 -26Q573 -26 434 67T237 297T179 575ZM477 581Q477 430
569 328T811 226Q933 226 1045 306T1231 550T1305 869Q1305 1042 1212 1140T975 1239Q754 1239 616 1033T477 581ZM709 1794H955L904 1549H658L709 1794ZM1130 1794H1376L1325 1549H1079L1130 1794Z" />
<glyph unicode="&#xd7;" glyph-name="multiply" horiz-adv-x="1196" d="M191 420L493 722L189 1025L375 1211L679 908L981 1210L1162 1028L860 726L1165 421L979 235L674 540L372 238L191 420Z" />
<glyph unicode="&#xd8;" glyph-name="Oslash" horiz-adv-x="1593" d="M309 172Q171 339 171 570Q171 804 276 1030T568 1373T989 1491Q1195 1491 1333 1402L1473 1570L1611 1456L1467 1283Q1598 1123 1598 873Q1598 635 1486 418T1188 88T776 -25Q578 -25 447
55L300 -122L159 -8L309 172ZM506 409L1152 1184Q1073 1239 966 1239Q841 1239 725 1156T540 911T470 591Q470 496 506 409ZM1265 1040L627 272Q711 217 808 217Q926 217 1038 297T1227 541T1304 873Q1304 954 1265 1040Z" />
<glyph unicode="&#xd9;" glyph-name="Ugrave" horiz-adv-x="1479" d="M391 1466H692L526 670L485 474Q481 449 481 427Q481 340 544 284T729 227Q838 227 909 268T1019 390T1098 665L1266 1466H1567L1400 664Q1347 411 1278 277T1069 59T715 -25Q459 -25 323 100T187
423Q187 464 194 512Q198 544 229 694L391 1466ZM737 1854H1013L1141 1555H947L737 1854Z" />
<glyph unicode="&#xda;" glyph-name="Uacute" horiz-adv-x="1479" d="M391 1466H692L526 670L485 474Q481 449 481 427Q481 340 544 284T729 227Q838 227 909 268T1019 390T1098 665L1266 1466H1567L1400 664Q1347 411 1278 277T1069 59T715 -25Q459 -25 323 100T187
423Q187 464 194 512Q198 544 229 694L391 1466ZM1002 1851H1308L984 1551H793L1002 1851Z" />
<glyph unicode="&#xdb;" glyph-name="Ucircumflex" horiz-adv-x="1479" d="M391 1466H692L526 670L485 474Q481 449 481 427Q481 340 544 284T729 227Q838 227 909 268T1019 390T1098 665L1266 1466H1567L1400 664Q1347 411 1278 277T1069 59T715 -25Q459 -25
323 100T187 423Q187 464 194 512Q198 544 229 694L391 1466ZM1017 1731L841 1553H605L902 1854H1170L1292 1553H1094L1017 1731Z" />
<glyph unicode="&#xdc;" glyph-name="Udieresis" horiz-adv-x="1479" d="M391 1466H692L526 670L485 474Q481 449 481 427Q481 340 544 284T729 227Q838 227 909 268T1019 390T1098 665L1266 1466H1567L1400 664Q1347 411 1278 277T1069 59T715 -25Q459 -25 323
100T187 423Q187 464 194 512Q198 544 229 694L391 1466ZM694 1794H940L889 1549H643L694 1794ZM1115 1794H1361L1310 1549H1064L1115 1794Z" />
<glyph unicode="&#xdd;" glyph-name="Yacute" horiz-adv-x="1366" d="M821 0H520L639 571L235 1466H556L738 1052Q803 903 825 837Q862 902 911 975L1050 1169L1257 1466H1607L935 543L821 0ZM1042 1851H1348L1024 1551H833L1042 1851Z" />
<glyph unicode="&#xde;" glyph-name="Thorn" horiz-adv-x="1366" d="M385 0H83L395 1466H696L637 1186H926Q1059 1186 1114 1176Q1188 1162 1246 1118T1342 992T1379 814Q1379 709 1336 604T1230 435T1095 339T899 289Q830 280 636 280H442L385 0ZM494 522H586Q825
522 905 552T1031 649T1077 795Q1077 844 1052 881T989 931T798 945H584L494 522Z" />
<glyph unicode="&#xdf;" glyph-name="germandbls" horiz-adv-x="1251" d="M359 0H72L273 961Q315 1159 362 1254T526 1420T822 1491Q1007 1491 1099 1411T1191 1212Q1191 1155 1167 1102T1071 963T983 848T966 793Q966 768 978 743Q998 705 1072 606T1168 453T1190
335Q1190 245 1144 158T1012 23T821 -25Q711 -25 614 29T456 170L660 285Q689 243 717 227T782 210Q834 210 868 244T902 329Q902 362 889 392T823 488Q733 600 706 659T679 768Q679 814 702 868T817 1044Q864 1107 875 1133T887 1185Q887 1226 861 1251T788 1277Q696
1277 636 1187Q595 1126 550 915L359 0Z" />
<glyph unicode="&#xe0;" glyph-name="agrave" horiz-adv-x="1139" d="M487 761L207 785Q255 927 374 1007T691 1087Q896 1087 994 1005T1092 803Q1092 755 1084 701T1024 417Q982 227 982 151Q982 83 1006 0H727Q710 58 706 120Q643 50 561 13T396 -25Q264 -25
178 61T92 284Q92 436 186 527T524 637Q729 654 798 678Q816 738 816 774Q816 820 779 851T669 882Q592 882 548 851T487 761ZM760 495Q734 488 691 482Q475 456 409 406Q362 370 362 309Q362 259 398 225T493 190Q558 190 615 221T701 302T752 457L760 495ZM520
1499H796L924 1200H730L520 1499Z" />
<glyph unicode="&#xe1;" glyph-name="aacute" horiz-adv-x="1139" d="M487 761L207 785Q255 927 374 1007T691 1087Q896 1087 994 1005T1092 803Q1092 755 1084 701T1024 417Q982 227 982 151Q982 83 1006 0H727Q710 58 706 120Q643 50 561 13T396 -25Q264 -25
178 61T92 284Q92 436 186 527T524 637Q729 654 798 678Q816 738 816 774Q816 820 779 851T669 882Q592 882 548 851T487 761ZM760 495Q734 488 691 482Q475 456 409 406Q362 370 362 309Q362 259 398 225T493 190Q558 190 615 221T701 302T752 457L760 495ZM856
1496H1162L838 1196H647L856 1496Z" />
<glyph unicode="&#xe2;" glyph-name="acircumflex" horiz-adv-x="1139" d="M487 761L207 785Q255 927 374 1007T691 1087Q896 1087 994 1005T1092 803Q1092 755 1084 701T1024 417Q982 227 982 151Q982 83 1006 0H727Q710 58 706 120Q643 50 561 13T396 -25Q264
-25 178 61T92 284Q92 436 186 527T524 637Q729 654 798 678Q816 738 816 774Q816 820 779 851T669 882Q592 882 548 851T487 761ZM760 495Q734 488 691 482Q475 456 409 406Q362 370 362 309Q362 259 398 225T493 190Q558 190 615 221T701 302T752 457L760 495ZM789
1375L613 1197H377L674 1498H942L1064 1197H866L789 1375Z" />
<glyph unicode="&#xe3;" glyph-name="atilde" horiz-adv-x="1139" d="M487 761L207 785Q255 927 374 1007T691 1087Q896 1087 994 1005T1092 803Q1092 755 1084 701T1024 417Q982 227 982 151Q982 83 1006 0H727Q710 58 706 120Q643 50 561 13T396 -25Q264 -25
178 61T92 284Q92 436 186 527T524 637Q729 654 798 678Q816 738 816 774Q816 820 779 851T669 882Q592 882 548 851T487 761ZM760 495Q734 488 691 482Q475 456 409 406Q362 370 362 309Q362 259 398 225T493 190Q558 190 615 221T701 302T752 457L760 495ZM564
1213H438Q465 1335 502 1384Q556 1454 636 1454Q688 1454 822 1405Q900 1377 929 1377Q952 1377 968 1391T998 1455H1126Q1107 1332 1051 1274T924 1215Q879 1215 780 1255T654 1295Q624 1295 602 1278T564 1213Z" />
<glyph unicode="&#xe4;" glyph-name="adieresis" horiz-adv-x="1139" d="M487 761L207 785Q255 927 374 1007T691 1087Q896 1087 994 1005T1092 803Q1092 755 1084 701T1024 417Q982 227 982 151Q982 83 1006 0H727Q710 58 706 120Q643 50 561 13T396 -25Q264
-25 178 61T92 284Q92 436 186 527T524 637Q729 654 798 678Q816 738 816 774Q816 820 779 851T669 882Q592 882 548 851T487 761ZM760 495Q734 488 691 482Q475 456 409 406Q362 370 362 309Q362 259 398 225T493 190Q558 190 615 221T701 302T752 457L760 495ZM467
1468H713L662 1223H416L467 1468ZM888 1468H1134L1083 1223H837L888 1468Z" />
<glyph unicode="&#xe5;" glyph-name="aring" horiz-adv-x="1139" d="M487 761L207 785Q255 927 374 1007T691 1087Q896 1087 994 1005T1092 803Q1092 755 1084 701T1024 417Q982 227 982 151Q982 83 1006 0H727Q710 58 706 120Q643 50 561 13T396 -25Q264 -25
178 61T92 284Q92 436 186 527T524 637Q729 654 798 678Q816 738 816 774Q816 820 779 851T669 882Q592 882 548 851T487 761ZM760 495Q734 488 691 482Q475 456 409 406Q362 370 362 309Q362 259 398 225T493 190Q558 190 615 221T701 302T752 457L760 495ZM538
1351Q538 1431 594 1487T731 1544Q811 1544 867 1488T924 1351Q924 1271 868 1215T731 1158Q651 1158 595 1214T538 1351ZM647 1351Q647 1316 671 1292T731 1267Q766 1267 790 1291T815 1351Q815 1386 791 1411T731 1436Q696 1436 672 1411T647 1351Z" />
<glyph unicode="&#xe6;" glyph-name="ae" horiz-adv-x="1821" d="M1754 440H1022Q1026 324 1089 257T1243 190Q1387 190 1464 328L1722 287Q1550 -25 1232 -25Q950 -25 836 223Q652 -25 397 -25Q243 -25 153 61T63 286Q63 405 120 484T265 593T516 639Q728 658
788 681Q796 714 796 738Q796 809 757 845T635 882Q560 882 519 853T455 758L180 786Q218 919 339 1003T658 1087Q802 1087 889 1045Q951 1015 989 954Q1127 1087 1342 1087Q1537 1087 1655 966T1773 632Q1773 535 1754 440ZM1512 615Q1513 635 1513 648Q1513 762
1460 822T1319 882Q1226 882 1150 814T1045 615H1512ZM751 501Q465 470 376 409Q322 372 322 312Q322 263 359 228T458 193Q552 193 625 264Q722 356 751 501Z" />
<glyph unicode="&#xe7;" glyph-name="ccedilla" horiz-adv-x="1139" d="M802 400L1081 355Q1012 169 877 72T564 -25Q361 -25 242 96T123 429Q123 602 195 756T412 998T730 1087Q918 1087 1030 989T1156 731L883 702Q873 791 829 833T712 875Q629 875 557 813T447
628T408 396Q408 302 454 251T569 200Q638 200 702 250T802 400ZM275 -413L323 -297L380 -298Q465 -298 543 -274Q592 -259 609 -239T626 -196Q626 -167 600 -147T510 -126Q478 -126 420 -135L454 -36Q526 -18 585 -18Q695 -18 751 -66T808 -183Q808 -267 720 -329Q598
-417 372 -417Q309 -417 275 -413Z" />
<glyph unicode="&#xe8;" glyph-name="egrave" horiz-adv-x="1139" d="M1116 442H396Q395 425 395 416Q395 310 455 245T603 180Q746 180 826 328L1083 285Q1008 130 883 53T601 -25Q387 -25 253 110T119 469Q119 687 240 857Q405 1087 711 1087Q906 1087 1021
967T1136 629Q1136 525 1116 442ZM874 617Q875 636 875 646Q875 764 822 823T680 882Q591 882 521 815T425 617H874ZM508 1499H784L912 1200H718L508 1499Z" />
<glyph unicode="&#xe9;" glyph-name="eacute" horiz-adv-x="1139" d="M1116 442H396Q395 425 395 416Q395 310 455 245T603 180Q746 180 826 328L1083 285Q1008 130 883 53T601 -25Q387 -25 253 110T119 469Q119 687 240 857Q405 1087 711 1087Q906 1087 1021
967T1136 629Q1136 525 1116 442ZM874 617Q875 636 875 646Q875 764 822 823T680 882Q591 882 521 815T425 617H874ZM845 1496H1151L827 1196H636L845 1496Z" />
<glyph unicode="&#xea;" glyph-name="ecircumflex" horiz-adv-x="1139" d="M1116 442H396Q395 425 395 416Q395 310 455 245T603 180Q746 180 826 328L1083 285Q1008 130 883 53T601 -25Q387 -25 253 110T119 469Q119 687 240 857Q405 1087 711 1087Q906 1087
1021 967T1136 629Q1136 525 1116 442ZM874 617Q875 636 875 646Q875 764 822 823T680 882Q591 882 521 815T425 617H874ZM790 1375L614 1197H378L675 1498H943L1065 1197H867L790 1375Z" />
<glyph unicode="&#xeb;" glyph-name="edieresis" horiz-adv-x="1139" d="M1116 442H396Q395 425 395 416Q395 310 455 245T603 180Q746 180 826 328L1083 285Q1008 130 883 53T601 -25Q387 -25 253 110T119 469Q119 687 240 857Q405 1087 711 1087Q906 1087 1021
967T1136 629Q1136 525 1116 442ZM874 617Q875 636 875 646Q875 764 822 823T680 882Q591 882 521 815T425 617H874ZM431 1468H677L626 1223H380L431 1468ZM852 1468H1098L1047 1223H801L852 1468Z" />
<glyph unicode="&#xec;" glyph-name="igrave" horiz-adv-x="569" d="M304 1062H591L369 0H82L304 1062ZM307 1499H583L711 1200H517L307 1499Z" />
<glyph unicode="&#xed;" glyph-name="iacute" horiz-adv-x="569" d="M304 1062H591L369 0H82L304 1062ZM796 1496H1102L778 1196H587L796 1496Z" />
<glyph unicode="&#xee;" glyph-name="icircumflex" horiz-adv-x="569" d="M304 1062H591L369 0H82L304 1062ZM779 1375L603 1197H367L664 1498H932L1054 1197H856L779 1375Z" />
<glyph unicode="&#xef;" glyph-name="idieresis" horiz-adv-x="569" d="M304 1062H591L369 0H82L304 1062ZM444 1468H690L639 1223H393L444 1468ZM865 1468H1111L1060 1223H814L865 1468Z" />
<glyph unicode="&#xf0;" glyph-name="eth" horiz-adv-x="1251" d="M688 1466H959Q985 1429 1010 1391L1212 1466L1245 1367L1066 1300Q1164 1123 1201 985T1239 669Q1239 412 1103 216Q936 -26 633 -26Q415 -26 296 71Q124 209 124 447Q124 684 262 858Q423 1062
676 1062Q771 1062 843 1029Q898 1004 959 938Q924 1098 856 1223L614 1136L579 1235L803 1315Q761 1382 688 1466ZM943 607Q943 714 883 776T728 838Q576 838 492 700T407 421Q407 316 466 255T623 194Q713 194 789 257T904 427T943 607Z" />
<glyph unicode="&#xf1;" glyph-name="ntilde" horiz-adv-x="1251" d="M308 1062H580L552 924Q654 1012 742 1049T929 1087Q1060 1087 1135 1012T1211 813Q1211 757 1178 601L1053 0H766L892 603Q920 738 920 764Q920 819 888 850T797 882Q734 882 657 829T536
689Q504 627 464 436L373 0H86L308 1062ZM607 1213H481Q508 1335 545 1384Q599 1454 679 1454Q731 1454 865 1405Q943 1377 972 1377Q995 1377 1011 1391T1041 1455H1169Q1150 1332 1094 1274T967 1215Q922 1215 823 1255T697 1295Q667 1295 645 1278T607 1213Z"
/>
<glyph unicode="&#xf2;" glyph-name="ograve" horiz-adv-x="1251" d="M124 441Q124 736 290 911T728 1087Q963 1087 1095 958T1227 609Q1227 351 1062 163T620 -25Q470 -25 354 35T181 205T124 441ZM942 646Q942 748 883 809T729 871Q636 871 564 814T452 647T412
445Q412 331 474 264T630 197Q748 197 828 298Q942 441 942 646ZM555 1499H831L959 1200H765L555 1499Z" />
<glyph unicode="&#xf3;" glyph-name="oacute" horiz-adv-x="1251" d="M124 441Q124 736 290 911T728 1087Q963 1087 1095 958T1227 609Q1227 351 1062 163T620 -25Q470 -25 354 35T181 205T124 441ZM942 646Q942 748 883 809T729 871Q636 871 564 814T452 647T412
445Q412 331 474 264T630 197Q748 197 828 298Q942 441 942 646ZM792 1496H1098L774 1196H583L792 1496Z" />
<glyph unicode="&#xf4;" glyph-name="ocircumflex" horiz-adv-x="1251" d="M124 441Q124 736 290 911T728 1087Q963 1087 1095 958T1227 609Q1227 351 1062 163T620 -25Q470 -25 354 35T181 205T124 441ZM942 646Q942 748 883 809T729 871Q636 871 564 814T452
647T412 445Q412 331 474 264T630 197Q748 197 828 298Q942 441 942 646ZM837 1375L661 1197H425L722 1498H990L1112 1197H914L837 1375Z" />
<glyph unicode="&#xf5;" glyph-name="otilde" horiz-adv-x="1251" d="M124 441Q124 736 290 911T728 1087Q963 1087 1095 958T1227 609Q1227 351 1062 163T620 -25Q470 -25 354 35T181 205T124 441ZM942 646Q942 748 883 809T729 871Q636 871 564 814T452 647T412
445Q412 331 474 264T630 197Q748 197 828 298Q942 441 942 646ZM566 1213H440Q467 1335 504 1384Q558 1454 638 1454Q690 1454 824 1405Q902 1377 931 1377Q954 1377 970 1391T1000 1455H1128Q1109 1332 1053 1274T926 1215Q881 1215 782 1255T656 1295Q626 1295
604 1278T566 1213Z" />
<glyph unicode="&#xf6;" glyph-name="odieresis" horiz-adv-x="1251" d="M124 441Q124 736 290 911T728 1087Q963 1087 1095 958T1227 609Q1227 351 1062 163T620 -25Q470 -25 354 35T181 205T124 441ZM942 646Q942 748 883 809T729 871Q636 871 564 814T452 647T412
445Q412 331 474 264T630 197Q748 197 828 298Q942 441 942 646ZM478 1468H724L673 1223H427L478 1468ZM899 1468H1145L1094 1223H848L899 1468Z" />
<glyph unicode="&#xf7;" glyph-name="divide" horiz-adv-x="1124" d="M502 981V1262H783V981H502ZM130 592V855H1155V592H130ZM502 185V466H783V185H502Z" />
<glyph unicode="&#xf8;" glyph-name="oslash" horiz-adv-x="1251" d="M1002 1026L1126 1170L1237 1076L1115 934Q1224 809 1224 608Q1224 351 1059 163T618 -25Q462 -25 343 39L216 -107L108 -11L230 130Q121 259 121 454Q121 683 247 860Q408 1087 726 1087Q891
1087 1002 1026ZM846 845Q792 879 721 879Q659 879 609 854T512 772T433 638Q389 528 389 425Q389 378 404 332L846 845ZM937 728L495 216Q550 185 620 185Q713 185 789 243T909 417T954 631Q954 677 937 728Z" />
<glyph unicode="&#xf9;" glyph-name="ugrave" horiz-adv-x="1251" d="M302 1062H589L458 433Q434 320 434 292Q434 246 468 213T555 180Q593 180 630 194T706 238T776 306T834 406Q853 452 875 556L981 1062H1268L1046 0H778L808 144Q632 -25 425 -25Q294 -25
219 50T144 251Q144 306 178 470L302 1062ZM590 1499H866L994 1200H800L590 1499Z" />
<glyph unicode="&#xfa;" glyph-name="uacute" horiz-adv-x="1251" d="M302 1062H589L458 433Q434 320 434 292Q434 246 468 213T555 180Q593 180 630 194T706 238T776 306T834 406Q853 452 875 556L981 1062H1268L1046 0H778L808 144Q632 -25 425 -25Q294 -25
219 50T144 251Q144 306 178 470L302 1062ZM839 1496H1145L821 1196H630L839 1496Z" />
<glyph unicode="&#xfb;" glyph-name="ucircumflex" horiz-adv-x="1251" d="M302 1062H589L458 433Q434 320 434 292Q434 246 468 213T555 180Q593 180 630 194T706 238T776 306T834 406Q853 452 875 556L981 1062H1268L1046 0H778L808 144Q632 -25 425 -25Q294
-25 219 50T144 251Q144 306 178 470L302 1062ZM848 1375L672 1197H436L733 1498H1001L1123 1197H925L848 1375Z" />
<glyph unicode="&#xfc;" glyph-name="udieresis" horiz-adv-x="1251" d="M302 1062H589L458 433Q434 320 434 292Q434 246 468 213T555 180Q593 180 630 194T706 238T776 306T834 406Q853 452 875 556L981 1062H1268L1046 0H778L808 144Q632 -25 425 -25Q294 -25
219 50T144 251Q144 306 178 470L302 1062ZM537 1468H783L732 1223H486L537 1468ZM958 1468H1204L1153 1223H907L958 1468Z" />
<glyph unicode="&#xfd;" glyph-name="yacute" horiz-adv-x="1139" d="M171 1062H457L529 533Q556 329 559 247Q615 410 713 591L967 1062H1271L615 -104Q534 -249 488 -307T376 -398T218 -431Q127 -431 13 -399L38 -185Q90 -200 139 -200Q271 -200 356 0L171 1062ZM761
1496H1067L743 1196H552L761 1496Z" />
<glyph unicode="&#xfe;" glyph-name="thorn" horiz-adv-x="1251" d="M379 1466H666L564 975Q709 1087 864 1087Q1031 1087 1132 972T1234 630Q1234 342 1059 144Q910 -25 704 -25Q493 -25 385 146L268 -405H-19L379 1466ZM462 453Q462 329 522 261T665 192Q736
192 802 243T911 414T955 636Q955 755 898 818T754 882Q671 882 604 824T500 653T462 453Z" />
<glyph unicode="&#xff;" glyph-name="ydieresis" horiz-adv-x="1139" d="M171 1062H457L529 533Q556 329 559 247Q615 410 713 591L967 1062H1271L615 -104Q534 -249 488 -307T376 -398T218 -431Q127 -431 13 -399L38 -185Q90 -200 139 -200Q271 -200 356 0L171
1062ZM448 1468H694L643 1223H397L448 1468ZM869 1468H1115L1064 1223H818L869 1468Z" />
</font>
</defs>
</svg>
